<svg version="1.1" viewBox="0.0 0.0 407.5196850393701 174.23884514435696" fill="none" stroke="none" stroke-linecap="square" stroke-miterlimit="10" xmlns:xlink="http://www.w3.org/1999/xlink" xmlns="http://www.w3.org/2000/svg"><clipPath id="p.0"><path d="m0 0l407.51968 0l0 174.23885l-407.51968 0l0 -174.23885z" clip-rule="nonzero"/></clipPath><g clip-path="url(#p.0)"><path fill="#000000" fill-opacity="0.0" d="m0 0l407.51968 0l0 174.23885l-407.51968 0z" fill-rule="evenodd"/><path fill="#000000" fill-opacity="0.0" d="m25.192913 27.29265l356.1575 -1.9212589" fill-rule="evenodd"/><path stroke="#000000" stroke-width="16.0" stroke-linejoin="round" stroke-linecap="butt" d="m25.192913 27.29265l356.1575 -1.9212589" fill-rule="evenodd"/><path fill="#000000" fill-opacity="0.0" d="m25.1916 137.76881l356.1575 -1.9212494" fill-rule="evenodd"/><path stroke="#000000" stroke-width="16.0" stroke-linejoin="round" stroke-linecap="butt" d="m25.1916 137.76881l356.1575 -1.9212494" fill-rule="evenodd"/><path fill="#000000" fill-opacity="0.0" d="m30.72 29.599737l34.551178 34.551178" fill-rule="evenodd"/><path stroke="#000000" stroke-width="16.0" stroke-linejoin="round" stroke-linecap="butt" d="m30.72 29.599737l34.551178 34.551178" fill-rule="evenodd"/><path fill="#000000" fill-opacity="0.0" d="m65.27118 53.292652l-34.551178 34.55118" fill-rule="evenodd"/><path stroke="#000000" stroke-width="16.0" stroke-linejoin="round" stroke-linecap="butt" d="m65.27118 53.292652l-34.551178 34.55118" fill-rule="evenodd"/><path fill="#000000" fill-opacity="0.0" d="m30.72 76.8l34.551178 34.551178" fill-rule="evenodd"/><path stroke="#000000" stroke-width="16.0" stroke-linejoin="round" stroke-linecap="butt" d="m30.72 76.8l34.551178 34.551178" fill-rule="evenodd"/><path fill="#000000" fill-opacity="0.0" d="m65.27118 100.49291l-34.551178 34.551186" fill-rule="evenodd"/><path stroke="#000000" stroke-width="16.0" stroke-linejoin="round" stroke-linecap="butt" d="m65.27118 100.49291l-34.551178 34.551186" fill-rule="evenodd"/><path fill="#000000" fill-opacity="0.0" d="m375.3512 27.84l-34.55121 34.55118" fill-rule="evenodd"/><path stroke="#000000" stroke-width="16.0" stroke-linejoin="round" stroke-linecap="butt" d="m375.3512 27.84l-34.55121 34.55118" fill-rule="evenodd"/><path fill="#000000" fill-opacity="0.0" d="m340.8 51.532913l34.55121 34.551178" fill-rule="evenodd"/><path stroke="#000000" stroke-width="16.0" stroke-linejoin="round" stroke-linecap="butt" d="m340.8 51.532913l34.55121 34.551178" fill-rule="evenodd"/><path fill="#000000" fill-opacity="0.0" d="m375.3512 75.04026l-34.55121 34.551186" fill-rule="evenodd"/><path stroke="#000000" stroke-width="16.0" stroke-linejoin="round" stroke-linecap="butt" d="m375.3512 75.04026l-34.55121 34.551186" fill-rule="evenodd"/><path fill="#000000" fill-opacity="0.0" d="m340.8 98.73318l34.55121 34.551186" fill-rule="evenodd"/><path stroke="#000000" stroke-width="16.0" stroke-linejoin="round" stroke-linecap="butt" d="m340.8 98.73318l34.55121 34.551186" fill-rule="evenodd"/></g></svg>