<svg version="1.1" viewBox="0.0 0.0 367.59842519685037 287.70866141732284" fill="none" stroke="none" stroke-linecap="square" stroke-miterlimit="10" xmlns:xlink="http://www.w3.org/1999/xlink" xmlns="http://www.w3.org/2000/svg">
    <clipPath id="p.0">
        <path d="m0 0l367.59842 0l0 287.70865l-367.59842 0l0 -287.70865z" clip-rule="nonzero"/>
    </clipPath>
    <g clip-path="url(#p.0)">
        <path fill="#000000" fill-opacity="0.0" d="m0 0l367.59842 0l0 287.70865l-367.59842 0z" fill-rule="evenodd"/>
        <path fill="#000000" fill-opacity="0.0" d="m20.964567 57.459805l0 0c0 22.664967 72.90355 41.038548 162.83464 41.038548c89.93111 0 162.83464 -18.37358 162.83464 -41.038548l0 172.78905c0 22.664963 -72.903534 41.03856 -162.83464 41.03856c-89.93109 0 -162.83464 -18.373596 -162.83464 -41.03856z" fill-rule="evenodd"/>
        <path fill="#000000" fill-opacity="0.0" d="m20.964567 57.459805l0 0c0 -22.664963 72.90355 -41.038544 162.83464 -41.038544c89.93111 0 162.83464 18.373583 162.83464 41.038544l0 0c0 22.664967 -72.903534 41.038548 -162.83464 41.038548c-89.93109 0 -162.83464 -18.37358 -162.83464 -41.038548z" fill-rule="evenodd"/>
        <path fill="#000000" fill-opacity="0.0" d="m346.63385 57.459805l0 0c0 22.664967 -72.903534 41.038548 -162.83464 41.038548c-89.93109 0 -162.83464 -18.37358 -162.83464 -41.038548l0 0c0 -22.664963 72.90355 -41.038544 162.83464 -41.038544c89.93111 0 162.83464 18.373583 162.83464 41.038544l0 172.78905c0 22.664963 -72.903534 41.03856 -162.83464 41.03856c-89.93109 0 -162.83464 -18.373596 -162.83464 -41.03856l0 -172.78905" fill-rule="evenodd"/>
        <path stroke="#000000" stroke-width="12.0" stroke-linejoin="round" stroke-linecap="butt" d="m346.63385 57.459805l0 0c0 22.664967 -72.903534 41.038548 -162.83464 41.038548c-89.93109 0 -162.83464 -18.37358 -162.83464 -41.038548l0 0c0 -22.664963 72.90355 -41.038544 162.83464 -41.038544c89.93111 0 162.83464 18.373583 162.83464 41.038544l0 172.78905c0 22.664963 -72.903534 41.03856 -162.83464 41.03856c-89.93109 0 -162.83464 -18.373596 -162.83464 -41.03856l0 -172.78905" fill-rule="evenodd"/>
    </g>
</svg>